<?xml version="1.0" encoding="UTF-8"?>
<!DOCTYPE svg PUBLIC "-//W3C//DTD SVG 1.1//EN" "http://www.w3.org/Graphics/SVG/1.1/DTD/svg11.dtd">
<!-- Creator: CorelDRAW 2018 (64-Bit) -->
<svg xmlns="http://www.w3.org/2000/svg" xml:space="preserve" width="13.9698mm" height="13.9698mm" version="1.1" style="shape-rendering:geometricPrecision; text-rendering:geometricPrecision; image-rendering:optimizeQuality; fill-rule:evenodd; clip-rule:evenodd"
viewBox="0 0 1396.98 1396.98"
 xmlns:xlink="http://www.w3.org/1999/xlink">
 <defs>
  <style type="text/css">
   <![CDATA[
    .str1 {stroke:#6699CC;stroke-width:69.99;stroke-miterlimit:22.9256}
    .str0 {stroke:#FF9966;stroke-width:69.99;stroke-miterlimit:22.9256}
    .fil1 {fill:none}
    .fil4 {fill:#336699}
    .fil2 {fill:#6699CC}
    .fil3 {fill:#FF9966}
    .fil0 {fill:white}
   ]]>
  </style>
 </defs>
 <g id="Слой_x0020_1">
  <metadata id="CorelCorpID_0Corel-Layer"/>
  <g id="_2939299020704">
   <circle class="fil0 str0" cx="698.49" cy="698.49" r="397.39"/>
   <circle class="fil1 str1" cx="698.49" cy="698.49" r="536.33"/>
   <path class="fil1 str1" d="M777.79 35.17c308.29,36.86 550.55,281.26 584.7,589.87"/>
   <path class="fil1 str1" d="M37.96 598.59c45.11,-298.24 284.47,-529.25 584.12,-563.76"/>
   <path class="fil1 str1" d="M605.61 1360.04c-298.55,-41.91 -532.04,-278.61 -569.89,-577.71"/>
   <path class="fil1 str1" d="M1360.04 791.45c-41.26,293.56 -271.05,524.84 -564.34,567.97"/>
   <path class="fil1 str1" d="M1164.09 33.69c78.13,54.72 145.98,122.77 200.48,201.03"/>
   <path class="fil1 str1" d="M35.62 230.14c55.14,-78.03 123.62,-145.72 202.29,-199.94"/>
   <path class="fil1 str1" d="M229.59 1360.97c-75.48,-53.43 -141.27,-119.36 -194.55,-194.96"/>
   <path class="fil1 str1" d="M1361.82 1166.18c-53.67,76.11 -120.03,142.42 -196.19,196.02"/>
   <circle class="fil2" cx="526.85" cy="648.2" r="144.36"/>
   <circle class="fil2" cx="870.12" cy="648.2" r="144.36"/>
   <circle class="fil3" cx="526.85" cy="648.2" r="120.5"/>
   <circle class="fil3" cx="870.12" cy="648.2" r="120.5"/>
   <circle class="fil2" cx="526.85" cy="648.2" r="96.64"/>
   <circle class="fil2" cx="870.12" cy="648.2" r="96.64"/>
   <circle class="fil3" cx="526.85" cy="648.2" r="72.78"/>
   <circle class="fil3" cx="870.12" cy="648.2" r="72.78"/>
   <circle class="fil2" cx="526.85" cy="648.2" r="48.93"/>
   <circle class="fil2" cx="870.12" cy="648.2" r="48.93"/>
   <circle class="fil3" cx="526.85" cy="648.2" r="25.07"/>
   <circle class="fil3" cx="870.12" cy="648.2" r="25.07"/>
   <circle class="fil3" cx="698.49" cy="922.41" r="79.62"/>
   <path class="fil4" d="M-0.01 -0.01l1397 0 0 1397 -1397 0 0 -1397zm67.33 67.32l1262.35 0 0 1262.35 -1262.35 0 0 -1262.35z"/>
  </g>
 </g>
</svg>
