<?xml version="1.0" encoding="UTF-8"?>
<!DOCTYPE svg PUBLIC "-//W3C//DTD SVG 1.1//EN" "http://www.w3.org/Graphics/SVG/1.1/DTD/svg11.dtd">
<!-- Creator: CorelDRAW 2018 (64-Bit) -->
<svg xmlns="http://www.w3.org/2000/svg" xml:space="preserve" width="13.9698mm" height="13.9698mm" version="1.1" style="shape-rendering:geometricPrecision; text-rendering:geometricPrecision; image-rendering:optimizeQuality; fill-rule:evenodd; clip-rule:evenodd"
viewBox="0 0 1396.98 1396.98"
 xmlns:xlink="http://www.w3.org/1999/xlink">
 <defs>
  <style type="text/css">
   <![CDATA[
    .str0 {stroke:#6699CC;stroke-width:69.99;stroke-miterlimit:22.9256}
    .str1 {stroke:#FF9966;stroke-width:69.99;stroke-miterlimit:22.9256}
    .fil0 {fill:none}
    .fil2 {fill:#336699}
    .fil1 {fill:#6699CC}
    .fil3 {fill:white}
   ]]>
  </style>
 </defs>
 <g id="Слой_x0020_1">
  <metadata id="CorelCorpID_0Corel-Layer"/>
  <g id="_2939137855328">
   <line class="fil0 str0" x1="1227.76" y1="87.19" x2="1227.76" y2= "1367.72" />
   <line class="fil0 str0" x1="1093.06" y1="87.19" x2="1093.06" y2= "1367.72" />
   <line class="fil0 str0" x1="958.36" y1="87.19" x2="958.36" y2= "1367.72" />
   <line class="fil0 str0" x1="823.65" y1="87.19" x2="823.65" y2= "1367.72" />
   <line class="fil0 str0" x1="688.95" y1="87.19" x2="688.95" y2= "1367.72" />
   <line class="fil0 str0" x1="554.25" y1="87.19" x2="554.25" y2= "1367.72" />
   <line class="fil0 str0" x1="419.54" y1="87.19" x2="419.54" y2= "1367.72" />
   <line class="fil0 str0" x1="284.84" y1="87.19" x2="284.84" y2= "1367.72" />
   <line class="fil0 str0" x1="150.14" y1="87.19" x2="150.14" y2= "1367.72" />
   <path class="fil1 str0" d="M1353.35 261.7c-40.14,23.53 -86.86,37.02 -136.75,37.02 -92.61,0 -174.35,-46.47 -223.2,-117.37 -38.8,22.09 -81.8,37.69 -127.51,45.24 -47.08,127.41 -169.62,218.25 -313.38,218.25 -107.04,0 -202.29,-50.36 -263.42,-128.65 -39.35,20.04 -83.89,31.34 -131.07,31.34 -37.11,0 -72.57,-6.99 -105.17,-19.72l0 -240.63 1300.5 0 0 174.52z"/>
   <path class="fil2" d="M-0.01 -0.01l1397 0 0 1397 -1397 0 0 -1397zm67.33 67.32l1262.35 0 0 1262.35 -1262.35 0 0 -1262.35z"/>
   <circle class="fil3 str1" cx="698.49" cy="901.29" r="395.53"/>
   <path class="fil0 str1" d="M448.93 1190.31c68.06,-55.43 154.93,-88.69 249.56,-88.69 94.63,0 181.5,33.26 249.56,88.69"/>
   <g>
    <line class="fil0 str1" x1="585.95" y1="844.7" x2="585.95" y2= "1008.4" />
    <line class="fil0 str1" x1="811.04" y1="844.7" x2="811.04" y2= "1008.4" />
   </g>
  </g>
 </g>
</svg>
