<?xml version="1.0" encoding="UTF-8"?>
<!DOCTYPE svg PUBLIC "-//W3C//DTD SVG 1.1//EN" "http://www.w3.org/Graphics/SVG/1.1/DTD/svg11.dtd">
<!-- Creator: CorelDRAW 2018 (64-Bit) -->
<svg xmlns="http://www.w3.org/2000/svg" xml:space="preserve" width="13.9698mm" height="13.9698mm" version="1.1" style="shape-rendering:geometricPrecision; text-rendering:geometricPrecision; image-rendering:optimizeQuality; fill-rule:evenodd; clip-rule:evenodd"
viewBox="0 0 1396.98 1396.98"
 xmlns:xlink="http://www.w3.org/1999/xlink">
 <defs>
  <style type="text/css">
   <![CDATA[
    .str1 {stroke:#6699CC;stroke-width:69.99;stroke-miterlimit:22.9256}
    .str0 {stroke:#FF9966;stroke-width:69.99;stroke-miterlimit:22.9256}
    .fil1 {fill:none}
    .fil3 {fill:#336699}
    .fil2 {fill:#6699CC}
    .fil0 {fill:white}
   ]]>
  </style>
 </defs>
 <g id="Слой_x0020_1">
  <metadata id="CorelCorpID_0Corel-Layer"/>
  <g id="_2939619705888">
   <circle class="fil0 str0" cx="698.49" cy="900.31" r="395.53"/>
   <polyline class="fil1 str1" points="1163.49,505.63 1163.49,1294.98 233.5,1294.98 233.5,505.63 "/>
   <polygon class="fil2" points="897.34,304.04 810.24,135.63 1046.27,13.56 1386.94,13.56 1386.94,50.84 "/>
   <rect class="fil2" transform="matrix(-0.714773 -1.38209 1.38209 -0.714773 797.11 381.248)" width="150.82" height="127"/>
   <path class="fil3" d="M-0.01 -0.01l1397 0 0 1397 -1397 0 0 -1397zm67.33 67.32l1262.35 0 0 1262.35 -1262.35 0 0 -1262.35z"/>
   <line class="fil1 str0" x1="585.95" y1="675.76" x2="585.95" y2= "839.46" />
   <line class="fil1 str0" x1="811.04" y1="675.76" x2="811.04" y2= "839.46" />
   <line class="fil1 str0" x1="520.97" y1="1101.72" x2="876" y2= "1101.72" />
   <path class="fil2" d="M795.07 534.52c0,60.63 -43.24,109.79 -96.58,109.79 -53.34,0 -96.58,-49.16 -96.58,-109.79 0,-61.88 66.89,-141.9 96.58,-188.95 29.68,47.03 96.58,127.08 96.58,188.95z"/>
   <rect class="fil2" x="233.5" y="1136.55" width="929.99" height="158.43"/>
  </g>
 </g>
</svg>
