<?xml version="1.0" encoding="UTF-8"?>
<!DOCTYPE svg PUBLIC "-//W3C//DTD SVG 1.1//EN" "http://www.w3.org/Graphics/SVG/1.1/DTD/svg11.dtd">
<!-- Creator: CorelDRAW 2018 (64-Bit) -->
<svg xmlns="http://www.w3.org/2000/svg" xml:space="preserve" width="13.9698mm" height="13.9698mm" version="1.1" style="shape-rendering:geometricPrecision; text-rendering:geometricPrecision; image-rendering:optimizeQuality; fill-rule:evenodd; clip-rule:evenodd"
viewBox="0 0 1396.98 1396.98"
 xmlns:xlink="http://www.w3.org/1999/xlink">
 <defs>
  <style type="text/css">
   <![CDATA[
    .str0 {stroke:#6699CC;stroke-width:69.99;stroke-miterlimit:22.9256}
    .str1 {stroke:#FF9966;stroke-width:69.99;stroke-miterlimit:22.9256}
    .str2 {stroke:#FF9966;stroke-width:40;stroke-miterlimit:22.9256}
    .fil0 {fill:none}
    .fil2 {fill:#336699}
    .fil3 {fill:#FF9966}
    .fil1 {fill:white}
   ]]>
  </style>
 </defs>
 <g id="Слой_x0020_1">
  <metadata id="CorelCorpID_0Corel-Layer"/>
  <g id="_2939748265040">
   <polyline class="fil0 str0" points="32.47,33.11 207.87,207.18 67.31,380.73 207.87,537.23 67.31,698.49 207.87,840.98 67.31,985.62 207.87,1159.2 33.48,1370.57 "/>
   <polyline class="fil0 str0" points="190.53,33.11 365.94,207.18 225.37,380.73 365.94,537.23 225.37,698.49 365.94,840.98 225.37,985.62 365.94,1159.2 191.54,1370.57 "/>
   <polyline class="fil0 str0" points="348.59,33.11 524,207.18 383.43,380.73 524,537.23 383.43,698.49 524,840.98 383.43,985.62 524,1159.2 349.61,1370.57 "/>
   <polyline class="fil0 str0" points="506.65,33.11 682.06,207.18 541.49,380.73 682.06,537.23 541.49,698.49 682.06,840.98 541.49,985.62 682.06,1159.2 507.67,1370.57 "/>
   <polyline class="fil0 str0" points="664.71,33.11 840.12,207.18 699.55,380.73 840.12,537.23 699.55,698.49 840.12,840.98 699.55,985.62 840.12,1159.2 665.73,1370.57 "/>
   <polyline class="fil0 str0" points="822.78,33.11 998.18,207.18 857.62,380.73 998.18,537.23 857.62,698.49 998.18,840.98 857.62,985.62 998.18,1159.2 823.79,1370.57 "/>
   <polyline class="fil0 str0" points="980.84,33.11 1156.24,207.18 1015.68,380.73 1156.24,537.23 1015.68,698.49 1156.24,840.98 1015.68,985.62 1156.24,1159.2 981.85,1370.57 "/>
   <polyline class="fil0 str0" points="1138.9,33.11 1314.31,207.18 1173.74,380.73 1314.31,537.23 1173.74,698.49 1314.31,840.98 1173.74,985.62 1314.31,1159.2 1139.91,1370.57 "/>
   <circle class="fil1 str1" cx="698.49" cy="698.49" r="395.53"/>
   <path class="fil2" d="M-0.01 -0.01l1397 0 0 1397 -1397 0 0 -1397zm67.33 67.32l1262.35 0 0 1262.35 -1262.35 0 0 -1262.35z"/>
   <circle class="fil3" cx="585.94" cy="647.19" r="79.62"/>
   <path class="fil0 str2" d="M474.77 742.43c-24.02,-25.9 -37.36,-59.93 -37.36,-95.25 0,-32.91 11.59,-64.77 32.73,-90"/>
   <path class="fil0 str2" d="M916.06 742.43c24.02,-25.9 37.36,-59.93 37.36,-95.25 0,-32.91 -11.59,-64.77 -32.73,-90"/>
   <circle class="fil3" cx="811.04" cy="647.19" r="79.62"/>
   <line class="fil0 str1" x1="520.97" y1="910.63" x2="876" y2= "910.63" />
  </g>
 </g>
</svg>
