<?xml version="1.0" encoding="UTF-8"?>
<!DOCTYPE svg PUBLIC "-//W3C//DTD SVG 1.1//EN" "http://www.w3.org/Graphics/SVG/1.1/DTD/svg11.dtd">
<!-- Creator: CorelDRAW 2018 (64-Bit) -->
<svg xmlns="http://www.w3.org/2000/svg" xml:space="preserve" width="46.9052mm" height="29.5486mm" version="1.1" style="shape-rendering:geometricPrecision; text-rendering:geometricPrecision; image-rendering:optimizeQuality; fill-rule:evenodd; clip-rule:evenodd"
viewBox="0 0 4690.52 2954.86"
 xmlns:xlink="http://www.w3.org/1999/xlink">
 <defs>
  <style type="text/css">
   <![CDATA[
    .fil6 {fill:#451E3B}
    .fil1 {fill:#533A38}
    .fil0 {fill:#B59F7A}
    .fil4 {fill:#D8A588}
    .fil5 {fill:#EBC9CD}
    .fil3 {fill:#FF9966}
    .fil2 {fill:#FFE3C3}
    .fil7 {fill:#EBC9CD;fill-rule:nonzero}
   ]]>
  </style>
 </defs>
 <g id="Слой_x0020_1">
  <metadata id="CorelCorpID_0Corel-Layer"/>
  <g id="_3097986411168">
   <rect class="fil0" transform="matrix(7.01717E-15 -0.264953 0.276254 7.31646E-15 947.587 1991.9)" width="405.69" height="1618.45"/>
   <rect class="fil1" transform="matrix(7.01717E-15 -0.264953 0.276254 7.31646E-15 947.587 2099.39)" width="405.69" height="1618.45"/>
   <polygon class="fil2" points="3304.1,1494.51 3206.87,1708.32 2991.47,1749.88 2885.87,1758.21 2784.68,1819.96 2877.09,1834.43 2956.59,1805.37 3236.88,1793.89 3391.85,1696.41 "/>
   <path class="fil3" d="M3226.45 2015.08c-28.89,107.21 -57.77,214.41 -86.65,321.62 -89.24,-23.39 -178.48,-46.78 -267.71,-70.17 -95.55,200.01 -191.09,400.02 -286.63,600.04 -11.91,-3.89 -34.46,-14.57 -46.37,-18.45l164.54 -607.77c-108.04,83.3 -273.91,168.35 -381.94,251.64 -14.72,-12.04 -20.84,-17.05 -35.56,-29.09 149.93,-176.78 293.02,-327.3 442.94,-504.08 124.25,-146.51 302.36,-25 497.38,56.26z"/>
   <rect class="fil4" x="3826.11" y="335.1" width="612.05" height="417.6"/>
   <polygon class="fil0" points="2685.54,1804.44 3092.19,1868.1 3080.63,1941.97 2636.63,1872.47 2631.32,1873.42 2544.07,1381.02 2608.49,1369.61 "/>
   <polygon class="fil0" points="3879.1,388.09 4385.17,388.09 4385.17,699.72 3879.1,699.72 "/>
   <rect class="fil4" x="4299" y="894.7" width="391.53" height="273.2"/>
   <polygon class="fil5" points="4338.74,934.44 4650.78,934.44 4650.78,1128.16 4338.74,1128.16 "/>
   <path class="fil3" d="M2424.34 1.02c289.99,0 525.13,234.78 525.75,524.62l159.5 158.88 -172.16 -42.6c-52.5,234.99 -262.27,410.63 -513.09,410.63 -290.37,0 -525.77,-235.39 -525.77,-525.76 0,-290.37 235.4,-525.77 525.77,-525.77zm230.58 499.91c0,27.18 -4.35,52.14 -13.06,74.68 -8.61,22.54 -20.89,40.24 -36.76,53.11 -15.96,12.86 -34.34,19.25 -55.33,19.25 -13.93,0 -26.31,-3.39 -37.15,-10.07 -10.73,-6.67 -18.47,-15.57 -23.21,-26.5l-4.55 0c-20.41,24.38 -46.34,36.57 -77.87,36.57 -33.47,0 -59.88,-10.07 -79.13,-30.19 -19.25,-20.12 -28.92,-47.59 -28.92,-82.51 0,-39.85 12.67,-71.97 38.01,-96.25 25.35,-24.38 58.33,-36.57 99.16,-36.57 16.25,0 34.14,1.55 53.78,4.65 19.54,3.09 35.6,6.86 48.27,11.22l-6.48 138.42c0,26.22 7.16,39.38 21.48,39.38 12.09,0 21.76,-8.81 28.92,-26.51 7.16,-17.61 10.83,-40.73 10.83,-69.26 0,-30.37 -6.38,-57.17 -19.05,-80.48 -12.68,-23.32 -30.48,-41.12 -53.4,-53.4 -22.93,-12.29 -49.14,-18.38 -78.65,-18.38 -38.21,0 -71.29,7.83 -99.44,23.51 -28.15,15.67 -49.82,38.3 -64.81,67.81 -14.99,29.6 -22.54,63.65 -22.54,102.44 0,52.04 13.93,92.09 41.79,119.95 27.86,27.86 68.29,41.69 121.21,41.69 20.02,0 41.98,-2.13 65.97,-6.58 23.99,-4.45 47.69,-10.93 70.91,-19.44l0 54.36c-40.44,17.22 -85.32,25.83 -134.66,25.83 -71.77,0 -127.79,-18.86 -167.93,-56.68 -40.14,-37.73 -60.17,-90.26 -60.17,-157.49 0,-46.62 10.26,-88.99 30.76,-127.01 20.51,-38.11 49.63,-67.91 87.55,-89.58 37.92,-21.57 81.45,-32.4 130.78,-32.4 41.6,0 78.75,8.51 111.35,25.54 32.69,16.93 57.94,41.11 75.74,72.45 17.7,31.34 26.6,67.52 26.6,108.44zm-290.2 35.41c0,39.85 16.25,59.78 48.75,59.78 17.03,0 29.99,-6 38.79,-18 8.9,-11.99 14.32,-31.44 16.16,-58.42l3.77 -62.59c-9.67,-2.03 -20.51,-3.1 -32.6,-3.1 -23.7,0 -42.08,7.35 -55.14,22.06 -13.16,14.7 -19.73,34.82 -19.73,60.27z"/>
   <rect class="fil5" x="-0" y="2908.27" width="4690.53" height="45.57"/>
   <path class="fil6" d="M3440.44 1145.53c71.27,7.62 144.55,9.94 213.64,29.63 -3.21,142.93 -6.43,285.86 -9.64,428.79l-28.1 142.15 -0.88 192.41 -44.04 119.98 -346.2 -8.27c19.93,-113.37 34.59,-196.82 54.52,-310.18 -10.23,-219.13 -62.27,-483.15 160.7,-594.51z"/>
   <path class="fil2" d="M3420.81 761.82c48.56,9.96 97.12,19.93 145.68,29.89 15.12,36.32 30.25,72.64 45.37,108.96 -27.44,93.66 -51.7,159.46 -28.63,260.14 -35.52,-3.81 -52.52,1.63 -86.92,13.45 -23.59,8.11 -91.1,34.27 -89.86,17.95 0.96,-12.65 21.37,-32.14 35.28,-57.26 14.12,-25.53 21.76,-56.73 23.67,-70.05 2.85,-19.86 13.57,-49.5 -7.3,-58.96 -59.62,-27.02 -31.43,-71.83 -29.96,-194.83 -2.44,-16.43 -4.89,-32.86 -7.33,-49.29z"/>
   <polygon class="fil3" points="3400.06,732.48 3597.52,768.76 3610.25,901.24 3554.31,911.09 3574.04,868.97 3546.79,814.23 3412.47,810.7 "/>
   <polygon class="fil1" points="2774.63,2525.93 2874.16,2525.93 2830.72,2908.02 2764.12,2908.02 "/>
   <polygon class="fil1" points="3451.52,2525.93 3552.77,2525.93 3607.1,2908.02 3552.77,2908.02 "/>
   <path class="fil6" d="M2147.38 2438.79c27.49,6.74 54.97,13.47 82.46,20.2 15.78,-0.95 31.57,-1.91 47.36,-2.86 18.98,12.04 37.96,24.09 56.95,36.13 -9.77,18.3 -19.54,36.61 -29.31,54.91 -16.2,-8.08 -32.39,-16.17 -48.58,-24.25 2.34,-6.73 4.68,-13.47 7.02,-20.2 -59.48,-6.8 -64.24,-7.52 -118.26,-33.33 0.79,-10.2 1.57,-20.4 2.36,-30.6z"/>
   <path class="fil6" d="M2539.09 2848.12c18.41,0.15 36.81,0.3 55.21,0.45 1.46,19.9 2.93,39.8 4.39,59.7 -14.34,0 -28.66,0 -43,0 -23.4,-17.48 -16.81,-19.54 -36.97,0 -32.36,0 -64.72,0 -97.08,0 -0.87,-6.43 -1.73,-12.87 -2.59,-19.31 40.02,-13.61 80.03,-27.23 120.04,-40.84z"/>
   <polygon class="fil2" points="3184.91,1903 3511.97,1860.26 3524.34,1623.28 3644.44,1603.95 3629.54,1775.87 3583.99,1926.25 3406.15,1981.48 3177.44,1954.96 3081.85,1934.12 3026.71,1874.96 2935.84,1843.62 3053.37,1814.98 "/>
   <path class="fil4" d="M158.89 335.1l1388.04 0 0 2573.17 -1388.04 0 0 -2573.17zm66.24 66.24l1255.56 0 0 543.94 -1255.56 0 0 -543.94zm1255.56 610.18l0 510.81 -1255.56 0 0 -510.81 1255.56 0zm0 577.05l0 510.82 -1255.56 0 0 -510.82 1255.56 0zm0 577.05l0 543.94 -1255.56 0 0 -543.94 1255.56 0z"/>
   <path class="fil4" d="M2784.8 1992.82c114,-121.43 410.57,-12.94 799.19,-66.57 9.71,-49.24 63.61,-176.12 84.05,-324.61 19.19,-139.43 3.28,-299.79 60.94,-376.98 69.53,-93.08 279.31,-42.66 282.57,67.2 7.57,254.69 -380.76,1053.25 -444.76,1234.07 -273.4,0 -546.79,0 -820.19,0 -21.04,-277.47 -22.7,-468.25 38.2,-533.11z"/>
   <path class="fil0" d="M366.76 2393c23.63,28.55 47.26,57.11 70.88,85.66 6.7,-0.37 13.4,-0.75 20.11,-1.12 -19.56,-26.45 -39.12,-52.9 -58.68,-79.36 24.83,-203.51 -127.22,-254.11 -214.88,-332.85 -97.01,-87.12 -121.64,-188.72 -154.44,-183.28 -30.01,4.98 -53,153.16 11.95,289.95 46.24,97.37 127.89,189.36 325.06,221z"/>
   <path class="fil0" d="M438.14 1242.47c-44.65,5.7 -61.28,112.95 -97.79,228.1 -35.86,113.11 -91.97,233.14 -98.66,350.1 -11.68,203.79 180.22,300.97 262.68,337.86 1.73,75.36 2.65,93.19 -0.55,150.69 -2.87,51.63 -14.06,124.76 -30.63,176.24 5.72,-1.51 11.45,-3.02 17.17,-4.53 13.86,-40.04 23.56,-75.74 29.92,-115.44 20.37,-127.07 0.17,-170.06 0.5,-208.66 99.7,-151.53 211.9,-307.07 189.08,-502.04 -23.07,-196.97 -142.73,-428.8 -271.72,-412.32z"/>
   <polygon class="fil7" points="613.04,2471.32 373.63,2471.32 311.83,2908.27 674.06,2908.27 "/>
   <rect class="fil4" x="1263.5" y="498.17" width="107.49" height="447.1"/>
   <rect class="fil0" x="1156.01" y="498.17" width="107.49" height="447.1"/>
   <rect class="fil1" x="1048.52" y="498.17" width="107.49" height="447.1"/>
   <rect class="fil3" x="1373.2" y="1075.23" width="107.49" height="447.1"/>
   <rect class="fil3" transform="matrix(0.253336 0.0775968 -0.0809066 0.264141 943.495 486.297)" width="405.69" height="1618.45"/>
   <rect class="fil0" transform="matrix(0.253336 0.0775968 -0.0809066 0.264141 1268.18 1063.35)" width="405.69" height="1618.45"/>
   <rect class="fil4" transform="matrix(0.253336 0.0775968 -0.0809066 0.264141 1377.92 2250.58)" width="405.69" height="1618.45"/>
  </g>
 </g>
</svg>
