<?xml version="1.0" encoding="UTF-8"?>
<!DOCTYPE svg PUBLIC "-//W3C//DTD SVG 1.1//EN" "http://www.w3.org/Graphics/SVG/1.1/DTD/svg11.dtd">
<!-- Creator: CorelDRAW 2018 (64-Bit) -->
<svg xmlns="http://www.w3.org/2000/svg" xml:space="preserve" width="46.9052mm" height="29.5486mm" version="1.1" style="shape-rendering:geometricPrecision; text-rendering:geometricPrecision; image-rendering:optimizeQuality; fill-rule:evenodd; clip-rule:evenodd"
viewBox="0 0 4690.52 2954.86"
 xmlns:xlink="http://www.w3.org/1999/xlink">
 <defs>
  <style type="text/css">
   <![CDATA[
    .fil7 {fill:#FEFEFE}
    .fil4 {fill:#451E3B}
    .fil6 {fill:#533A38}
    .fil10 {fill:#B59F7A}
    .fil3 {fill:#D8A588}
    .fil8 {fill:#E18D4E}
    .fil1 {fill:#EBC9CD}
    .fil0 {fill:#FF9966}
    .fil9 {fill:#FFE3C3}
    .fil5 {fill:#451E3B;fill-rule:nonzero}
    .fil2 {fill:#D8A588;fill-rule:nonzero}
   ]]>
  </style>
 </defs>
 <g id="Слой_x0020_1">
  <metadata id="CorelCorpID_0Corel-Layer"/>
  <g id="_3097912464352">
   <path class="fil0" d="M2182.61 1.03c-1.86,0 -3.72,0.05 -5.59,0.07 -1.86,-0.02 -3.72,-0.07 -5.59,-0.07 -290.37,0 -525.76,235.39 -525.76,525.76 0,3.31 0.06,6.59 0.12,9.88l-148.42 147.85 161.54 -39.97c53.46,233.68 262.64,408.01 512.52,408.01 1.87,0 3.73,-0.04 5.59,-0.06 1.87,0.02 3.73,0.06 5.59,0.06 249.89,0 459.06,-174.33 512.52,-408.01l161.55 39.97 -148.42 -147.85c0.06,-3.29 0.12,-6.57 0.12,-9.88 0,-290.37 -235.39,-525.76 -525.77,-525.76zm239.77 483.71c23.09,0.17 41.74,18.93 41.74,42.05 0,23.13 -18.65,41.89 -41.74,42.06 -23.08,-0.17 -41.74,-18.93 -41.74,-42.06 0,-23.12 18.66,-41.88 41.74,-42.05zm-245.36 0c23.09,0.17 41.74,18.93 41.74,42.05 0,23.13 -18.65,41.89 -41.74,42.06 -23.08,-0.17 -41.74,-18.93 -41.74,-42.06 0,-23.12 18.66,-41.88 41.74,-42.05zm-245.36 0c23.09,0.17 41.74,18.93 41.74,42.05 0,23.13 -18.65,41.89 -41.74,42.06 -23.08,-0.17 -41.74,-18.93 -41.74,-42.06 0,-23.12 18.66,-41.88 41.74,-42.05z"/>
   <path class="fil1" d="M4300.39 2326.94c26.64,32.19 53.27,64.38 79.9,96.57 7.56,-0.43 15.11,-0.84 22.67,-1.27 -22.05,-29.82 -44.1,-59.63 -66.15,-89.46 27.99,-229.42 -143.42,-286.46 -242.24,-375.23 -109.35,-98.21 -137.13,-212.75 -174.09,-206.61 -33.84,5.62 -59.75,172.65 13.47,326.86 52.11,109.77 144.17,213.47 366.44,249.14z"/>
   <path class="fil1" d="M4380.86 1029.92c-50.34,6.43 -69.08,127.34 -110.25,257.16 -40.42,127.5 -103.67,262.81 -111.22,394.67 -13.16,229.73 203.17,339.28 296.12,380.87 1.95,84.95 2.99,105.05 -0.62,169.87 -3.23,58.21 -15.85,140.65 -34.53,198.69 6.45,-1.71 12.91,-3.41 19.36,-5.12 15.63,-45.13 26.56,-85.38 33.74,-130.14 22.96,-143.25 0.18,-191.71 0.55,-235.21 112.4,-170.84 238.89,-346.17 213.15,-565.96 -25.99,-222.05 -160.9,-483.4 -306.3,-464.83z"/>
   <polygon class="fil2" points="4578.02,2415.23 4308.13,2415.23 4238.46,2907.82 4646.81,2907.82 "/>
   <rect class="fil3" x="291.35" y="2862.66" width="413.61" height="45.63"/>
   <rect class="fil1" x="476.23" y="584.65" width="42.06" height="2278.01"/>
   <polygon class="fil4" points="1427.39,1649.04 1214.46,1727.91 1279.3,1880.38 1482.6,1797.13 "/>
   <path class="fil0" d="M802.51 1113.68c-151.73,-12.85 -280.29,18.83 -285.29,247.76 -3.84,176.16 -16.2,347.81 -15.24,526.51 36,24.68 72.01,49.36 108.02,74.03 65.34,5.05 130.67,10.1 196.01,15.15 95.55,-6.07 191.1,-12.13 286.65,-18.2 0.18,-30.56 0.37,-61.12 0.55,-91.69 36.21,3.16 72.43,6.32 108.64,9.48 5.06,-16.59 10.11,-33.19 15.17,-49.79 -41.13,-9.93 -82.26,-19.86 -123.39,-29.8 0.21,-35.57 0.43,-71.15 0.64,-106.73 72.22,9.82 144.43,19.63 216.65,29.44 2.8,-19.81 5.59,-39.62 8.39,-59.43 -77.59,-27.15 -155.19,-54.31 -232.78,-81.47 0,-71.91 0,-143.81 0,-215.71 0,-237.38 -66.81,-231.16 -284.02,-249.55z"/>
   <path class="fil2" d="M633.96 118.47l-273.4 0 -136.7 466.18 546.8 0 -136.7 -466.18zm-136.7 0m-205.04 233.09m205.04 233.09m205.06 -233.09"/>
   <polygon class="fil5" points="736.75,468.98 258.21,468.98 223.86,584.65 770.66,584.65 "/>
   <rect class="fil1" x="0.01" y="2908.29" width="4690.53" height="45.57"/>
   <polygon class="fil6" points="1367.42,2526.2 1267.89,2526.2 1311.34,2908.29 1377.93,2908.29 "/>
   <polygon class="fil6" points="690.53,2526.2 589.28,2526.2 534.95,2908.29 589.28,2908.29 "/>
   <polygon class="fil7" points="924.87,1111.84 799.82,1086.38 776.33,1702.48 931.44,1748.93 "/>
   <polygon class="fil8" points="1471.67,1767.82 1267.95,1853.7 1279.3,1880.38 1482.6,1797.13 "/>
   <path class="fil9" d="M1352.03 1845.33c-67.85,6.75 -72.85,11.71 -138.26,-7.75 -3.97,13.05 -7.94,26.09 -11.92,39.14 29.77,11.28 53.86,28.04 83.4,19.3 20.48,-6.06 42.36,-13.65 62.85,-26.72 1.77,-10.84 2.15,-13.14 3.93,-23.97z"/>
   <path class="fil9" d="M1317.74 1671.54c-2.28,16.1 -4.55,32.2 -6.82,48.3 8.73,6.33 17.46,12.67 26.19,19 18.02,13.07 20.28,4.51 41.77,-6.22 23.23,23.03 25.22,34.3 57.15,38.23 -22.34,-86.24 -30.55,-66.4 -118.29,-99.31z"/>
   <path class="fil0" d="M2350.09 2817.12c-28.04,3.8 -56.08,7.59 -84.12,11.39 -15.6,-2.61 -31.2,-5.23 -46.79,-7.84 -20.15,9.97 -40.3,19.95 -60.45,29.92 7.79,19.23 15.57,38.47 23.36,57.7 16.95,-6.33 33.91,-12.66 50.86,-18.99 -1.62,-6.95 -3.23,-13.89 -4.85,-20.84 59.87,-0.48 64.68,-0.7 121.12,-20.67 0.29,-10.22 0.58,-20.44 0.87,-30.67z"/>
   <path class="fil0" d="M1974.18 2848.13c-18.41,0.15 -36.81,0.3 -55.21,0.45 -1.46,19.9 -2.93,39.81 -4.39,59.71 14.34,0 28.66,0 43,0 23.4,-17.48 16.81,-19.54 36.97,0 32.36,0 64.72,0 97.08,0 0.87,-6.44 1.73,-12.88 2.59,-19.31 -40.02,-13.62 -80.03,-27.23 -120.04,-40.85z"/>
   <path class="fil4" d="M1387.48 2049.4c6.51,94.4 13.02,188.8 19.53,283.19 60.9,6.16 83.1,40.01 124.73,85.26 144.01,156.55 252.15,274.11 396.16,430.66 15.42,-0.13 30.85,-0.25 46.28,-0.38 -96.41,-159.3 -192.82,-318.6 -289.22,-477.91 162.93,156.91 327.71,315.11 490.64,472.02 15.15,-6.76 28.43,-14.81 43.58,-21.57 -184.23,-228.61 -368.46,-457.22 -552.69,-685.83 -72.66,-90.17 -159.56,-70.6 -279.01,-85.44z"/>
   <path class="fil4" d="M1062.83 806.05c-126.02,-34.68 -199.71,-67.63 -240.1,-30.39 -24.08,22.21 -8.83,82.99 -46.34,153.07 15.47,0.73 30.94,1.47 46.4,2.2 -2.87,-12.84 -5.75,-25.67 -8.62,-38.5 8.87,-0.12 17.75,-0.23 26.62,-0.35 3.64,-11.45 7.27,-22.89 10.91,-34.34 49.47,10.28 98.95,20.55 148.43,30.82 -1.35,8.81 -2.7,17.62 -4.05,26.43 44.78,-4.89 21.59,-49.16 66.75,-108.94z"/>
   <polygon class="fil7" points="930.51,1845.32 775.41,1820.78 775.41,1954.86 930.51,1954.86 "/>
   <path class="fil9" d="M1006.8 848.1c-54.33,27.75 -106.03,-9.34 -165.62,-10.51 -0.13,18.16 -0.26,36.33 -0.39,54.49 -3.59,0.05 -14.2,-4.29 -17.79,-4.24 -21.28,0.27 -2.01,35.04 3.35,58.97 0.48,59.85 -9.09,112.69 -27.7,170.33 -2.73,71.62 114.64,152.95 126.44,16.12 1.84,-21.87 5.8,-55.46 5.34,-83.47 -0.47,-28.16 34,-14.29 46.99,-36.74 13.74,-23.75 19.95,-103.31 29.38,-164.95z"/>
   <path class="fil3" d="M1357.26 1993.08c-114.01,-121.43 -410.58,-12.94 -799.2,-66.57 -9.7,-49.23 -63.61,-176.12 -84.05,-324.61 -19.19,-139.43 -3.28,-299.79 -60.94,-376.98 -69.53,-93.07 -279.31,-42.66 -282.57,67.21 -7.56,254.68 380.76,1053.25 444.76,1234.07 273.4,0 546.8,0 820.2,0 21.03,-277.47 22.69,-468.25 -38.2,-533.12z"/>
   <rect class="fil8" transform="matrix(-0.247857 0.093633 0.0936327 0.247858 1362.15 1628.83)" width="79.37" height="601.93"/>
   <g>
    <path class="fil0" d="M3226.45 2015.35c-28.88,107.2 -57.76,214.41 -86.64,321.62 -89.24,-23.39 -178.48,-46.78 -267.72,-70.17 -95.54,200.01 -191.08,400.02 -286.62,600.03 -11.91,-3.88 -34.46,-14.56 -46.37,-18.44l164.54 -607.77c-108.04,83.29 -273.91,168.34 -381.95,251.64 -14.71,-12.04 -20.84,-17.05 -35.55,-29.09 149.92,-176.78 293.02,-327.3 442.94,-504.08 124.24,-146.51 302.35,-25.01 497.37,56.26z"/>
    <path class="fil4" d="M3440.45 1145.79c71.27,7.63 144.54,9.94 213.64,29.63 -3.22,142.93 -6.43,285.86 -9.65,428.79l-28.09 142.15 -0.89 192.42 -44.04 119.98 -346.19 -8.28c19.92,-113.36 34.59,-196.81 54.51,-310.18 -10.23,-219.13 -62.26,-483.14 160.71,-594.51z"/>
    <path class="fil9" d="M3420.82 762.08c48.56,9.96 97.12,19.93 145.68,29.89 15.12,36.32 30.24,72.64 45.37,108.96 -27.44,93.66 -51.71,159.46 -28.63,260.14 -35.52,-3.8 -52.53,1.64 -86.92,13.45 -23.6,8.11 -91.1,34.27 -89.86,17.95 0.96,-12.65 21.37,-32.13 35.27,-57.26 14.13,-25.53 21.76,-56.73 23.68,-70.05 2.85,-19.86 13.56,-49.5 -7.3,-58.96 -59.63,-27.02 -31.43,-71.83 -29.96,-194.83 -2.44,-16.43 -4.89,-32.86 -7.33,-49.29z"/>
    <polygon class="fil0" points="3400.06,732.74 3597.53,769.02 3610.26,901.5 3554.32,911.35 3574.05,869.23 3546.79,814.5 3412.47,810.96 "/>
    <polygon class="fil6" points="2774.64,2526.2 2874.17,2526.2 2830.72,2908.29 2764.12,2908.29 "/>
    <polygon class="fil6" points="3451.53,2526.2 3552.78,2526.2 3607.1,2908.29 3552.78,2908.29 "/>
    <path class="fil4" d="M2147.39 2439.06c27.48,6.73 54.97,13.47 82.45,20.2 15.79,-0.95 31.58,-1.91 47.36,-2.86 18.99,12.04 37.97,24.08 56.96,36.13 -9.77,18.3 -19.55,36.6 -29.32,54.91 -16.19,-8.08 -32.38,-16.17 -48.57,-24.25 2.34,-6.74 4.68,-13.47 7.02,-20.21 -59.48,-6.79 -64.25,-7.51 -118.26,-33.33 0.78,-10.19 1.57,-20.39 2.36,-30.59z"/>
    <path class="fil4" d="M2539.1 2848.39c18.4,0.15 36.81,0.3 55.21,0.45 1.46,19.9 2.92,39.8 4.38,59.7 -14.33,0 -28.66,0 -42.99,0 -23.41,-17.48 -16.81,-19.54 -36.97,0 -32.36,0 -64.73,0 -97.09,0 -0.86,-6.44 -1.72,-12.87 -2.58,-19.31 40.01,-13.61 80.03,-27.23 120.04,-40.84z"/>
    <polygon class="fil9" points="3184.92,1903.27 3511.98,1860.53 3524.35,1623.54 3644.44,1604.21 3629.55,1776.13 3584,1926.51 3406.15,1981.75 3177.44,1955.22 3013.33,1932.66 3060.39,1894.69 "/>
    <path class="fil10" d="M2784.8 1993.08c114,-121.43 410.57,-12.94 799.2,-66.57 9.7,-49.23 63.61,-176.12 84.05,-324.61 19.19,-139.43 3.28,-299.79 60.94,-376.98 69.53,-93.07 279.31,-42.66 282.57,67.21 7.56,254.68 -380.76,1053.25 -444.76,1234.07 -273.4,0 -546.8,0 -820.2,0 -21.03,-277.47 -22.69,-468.25 38.2,-533.12z"/>
   </g>
  </g>
 </g>
</svg>
