<svg xmlns="http://www.w3.org/2000/svg" width="177.279" height="111.68" viewBox="0 0 4690.52 2954.86" shape-rendering="geometricPrecision" text-rendering="geometricPrecision" image-rendering="optimizeQuality" fill-rule="evenodd" clip-rule="evenodd"><defs><style>.fil7{fill:#fefefe}.fil4{fill:#451e3b}.fil6{fill:#533a38}.fil3{fill:#d8a588}.fil8{fill:#e18d4e}.fil1{fill:#ebc9cd}.fil0{fill:#f96}.fil9{fill:#ffe3c3}.fil2{fill:#d8a588;fill-rule:nonzero}</style></defs><g id="Слой_x0020_1"><g id="_3097912464352"><path class="fil0" d="M2182.61 1.03c-1.86 0-3.72.05-5.59.07-1.86-.02-3.72-.07-5.59-.07-290.37 0-525.76 235.39-525.76 525.76 0 3.31.06 6.59.12 9.88l-148.42 147.85 161.54-39.97c53.46 233.68 262.64 408.01 512.52 408.01 1.87 0 3.73-.04 5.59-.06 1.87.02 3.73.06 5.59.06 249.89 0 459.06-174.33 512.52-408.01l161.55 39.97-148.42-147.85c.06-3.29.12-6.57.12-9.88 0-290.37-235.39-525.76-525.77-525.76zm239.77 483.71c23.09.17 41.74 18.93 41.74 42.05 0 23.13-18.65 41.89-41.74 42.06-23.08-.17-41.74-18.93-41.74-42.06 0-23.12 18.66-41.88 41.74-42.05zm-245.36 0c23.09.17 41.74 18.93 41.74 42.05 0 23.13-18.65 41.89-41.74 42.06-23.08-.17-41.74-18.93-41.74-42.06 0-23.12 18.66-41.88 41.74-42.05zm-245.36 0c23.09.17 41.74 18.93 41.74 42.05 0 23.13-18.65 41.89-41.74 42.06-23.08-.17-41.74-18.93-41.74-42.06 0-23.12 18.66-41.88 41.74-42.05z"/><path class="fil1" d="M4300.39 2326.94c26.64 32.19 53.27 64.38 79.9 96.57 7.56-.43 15.11-.84 22.67-1.27-22.05-29.82-44.1-59.63-66.15-89.46 27.99-229.42-143.42-286.46-242.24-375.23-109.35-98.21-137.13-212.75-174.09-206.61-33.84 5.62-59.75 172.65 13.47 326.86 52.11 109.77 144.17 213.47 366.44 249.14z"/><path class="fil1" d="M4380.86 1029.92c-50.34 6.43-69.08 127.34-110.25 257.16-40.42 127.5-103.67 262.81-111.22 394.67-13.16 229.73 203.17 339.28 296.12 380.87 1.95 84.95 2.99 105.05-.62 169.87-3.23 58.21-15.85 140.65-34.53 198.69 6.45-1.71 12.91-3.41 19.36-5.12 15.63-45.13 26.56-85.38 33.74-130.14 22.96-143.25.18-191.71.55-235.21 112.4-170.84 238.89-346.17 213.15-565.96-25.99-222.05-160.9-483.4-306.3-464.83z"/><path class="fil2" d="M4578.02 2415.23h-269.89l-69.67 492.59h408.35z"/><path class="fil3" d="M291.35 2862.66h413.61v45.63H291.35z"/><path class="fil1" d="M476.23 584.65h42.06v2278.01h-42.06z"/><path class="fil4" d="M1427.39 1649.04l-212.93 78.87 64.84 152.47 203.3-83.25z"/><path class="fil0" d="M802.51 1113.68c-151.73-12.85-280.29 18.83-285.29 247.76-3.84 176.16-16.2 347.81-15.24 526.51 36 24.68 72.01 49.36 108.02 74.03l196.01 15.15c95.55-6.07 191.1-12.13 286.65-18.2.18-30.56.37-61.12.55-91.69l108.64 9.48c5.06-16.59 10.11-33.19 15.17-49.79-41.13-9.93-82.26-19.86-123.39-29.8.21-35.57.43-71.15.64-106.73 72.22 9.82 144.43 19.63 216.65 29.44 2.8-19.81 5.59-39.62 8.39-59.43-77.59-27.15-155.19-54.31-232.78-81.47v-215.71c0-237.38-66.81-231.16-284.02-249.55z"/><path class="fil2" d="M633.96 118.47h-273.4l-136.7 466.18h546.8l-136.7-466.18zm68.36 233.09"/><path fill="#451e3b" fill-rule="nonzero" d="M736.75 468.98H258.21l-34.35 115.67h546.8z"/><path class="fil1" d="M.01 2908.29h4690.53v45.57H.01z"/><path class="fil6" d="M1367.42 2526.2h-99.53l43.45 382.09h66.59zm-676.89 0H589.28l-54.33 382.09h54.33z"/><path class="fil7" d="M924.87 1111.84l-125.05-25.46-23.49 616.1 155.11 46.45z"/><path class="fil8" d="M1471.67 1767.82l-203.72 85.88 11.35 26.68 203.3-83.25z"/><path class="fil9" d="M1352.03 1845.33c-67.85 6.75-72.85 11.71-138.26-7.75-3.97 13.05-7.94 26.09-11.92 39.14 29.77 11.28 53.86 28.04 83.4 19.3 20.48-6.06 42.36-13.65 62.85-26.72 1.77-10.84 2.15-13.14 3.93-23.97zm-34.29-173.79c-2.28 16.1-4.55 32.2-6.82 48.3 8.73 6.33 17.46 12.67 26.19 19 18.02 13.07 20.28 4.51 41.77-6.22 23.23 23.03 25.22 34.3 57.15 38.23-22.34-86.24-30.55-66.4-118.29-99.31z"/><path class="fil0" d="M2350.09 2817.12c-28.04 3.8-56.08 7.59-84.12 11.39-15.6-2.61-31.2-5.23-46.79-7.84-20.15 9.97-40.3 19.95-60.45 29.92 7.79 19.23 15.57 38.47 23.36 57.7 16.95-6.33 33.91-12.66 50.86-18.99-1.62-6.95-3.23-13.89-4.85-20.84 59.87-.48 64.68-.7 121.12-20.67l.87-30.67zm-375.91 31.01l-55.21.45c-1.46 19.9-2.93 39.81-4.39 59.71h43c23.4-17.48 16.81-19.54 36.97 0h97.08c.87-6.44 1.73-12.88 2.59-19.31-40.02-13.62-80.03-27.23-120.04-40.85z"/><path class="fil4" d="M1387.48 2049.4l19.53 283.19c60.9 6.16 83.1 40.01 124.73 85.26l396.16 430.66c15.42-.13 30.85-.25 46.28-.38-96.41-159.3-192.82-318.6-289.22-477.91 162.93 156.91 327.71 315.11 490.64 472.02 15.15-6.76 28.43-14.81 43.58-21.57l-552.69-685.83c-72.66-90.17-159.56-70.6-279.01-85.44zM1062.83 806.05c-126.02-34.68-199.71-67.63-240.1-30.39-24.08 22.21-8.83 82.99-46.34 153.07 15.47.73 30.94 1.47 46.4 2.2-2.87-12.84-5.75-25.67-8.62-38.5 8.87-.12 17.75-.23 26.62-.35 3.64-11.45 7.27-22.89 10.91-34.34 49.47 10.28 98.95 20.55 148.43 30.82l-4.05 26.43c44.78-4.89 21.59-49.16 66.75-108.94z"/><path class="fil7" d="M930.51 1845.32l-155.1-24.54v134.08h155.1z"/><path class="fil9" d="M1006.8 848.1c-54.33 27.75-106.03-9.34-165.62-10.51l-.39 54.49c-3.59.05-14.2-4.29-17.79-4.24-21.28.27-2.01 35.04 3.35 58.97.48 59.85-9.09 112.69-27.7 170.33-2.73 71.62 114.64 152.95 126.44 16.12 1.84-21.87 5.8-55.46 5.34-83.47-.47-28.16 34-14.29 46.99-36.74 13.74-23.75 19.95-103.31 29.38-164.95z"/><path class="fil3" d="M1357.26 1993.08c-114.01-121.43-410.58-12.94-799.2-66.57-9.7-49.23-63.61-176.12-84.05-324.61-19.19-139.43-3.28-299.79-60.94-376.98-69.53-93.07-279.31-42.66-282.57 67.21-7.56 254.68 380.76 1053.25 444.76 1234.07h820.2c21.03-277.47 22.69-468.25-38.2-533.12z"/><path class="fil8" transform="matrix(-.24786 .09363 .09363 .24786 1362.15 1628.83)" d="M0 0h79.37v601.93H0z"/><path class="fil0" d="M3226.45 2015.35c-28.88 107.2-57.76 214.41-86.64 321.62l-267.72-70.17-286.62 600.03c-11.91-3.88-34.46-14.56-46.37-18.44l164.54-607.77c-108.04 83.29-273.91 168.34-381.95 251.64-14.71-12.04-20.84-17.05-35.55-29.09 149.92-176.78 293.02-327.3 442.94-504.08 124.24-146.51 302.35-25.01 497.37 56.26z"/><path class="fil4" d="M3440.45 1145.79c71.27 7.63 144.54 9.94 213.64 29.63-3.22 142.93-6.43 285.86-9.65 428.79l-28.09 142.15-.89 192.42-44.04 119.98-346.19-8.28c19.92-113.36 34.59-196.81 54.51-310.18-10.23-219.13-62.26-483.14 160.71-594.51z"/><path class="fil9" d="M3420.82 762.08c48.56 9.96 97.12 19.93 145.68 29.89 15.12 36.32 30.24 72.64 45.37 108.96-27.44 93.66-51.71 159.46-28.63 260.14-35.52-3.8-52.53 1.64-86.92 13.45-23.6 8.11-91.1 34.27-89.86 17.95.96-12.65 21.37-32.13 35.27-57.26 14.13-25.53 21.76-56.73 23.68-70.05 2.85-19.86 13.56-49.5-7.3-58.96-59.63-27.02-31.43-71.83-29.96-194.83-2.44-16.43-4.89-32.86-7.33-49.29z"/><path class="fil0" d="M3400.06 732.74l197.47 36.28 12.73 132.48-55.94 9.85 19.73-42.12-27.26-54.73-134.32-3.54z"/><path class="fil6" d="M2774.64 2526.2h99.53l-43.45 382.09h-66.6zm676.89 0h101.25l54.32 382.09h-54.32z"/><path class="fil4" d="M2147.39 2439.06c27.48 6.73 54.97 13.47 82.45 20.2 15.79-.95 31.58-1.91 47.36-2.86 18.99 12.04 37.97 24.08 56.96 36.13-9.77 18.3-19.55 36.6-29.32 54.91-16.19-8.08-32.38-16.17-48.57-24.25 2.34-6.74 4.68-13.47 7.02-20.21-59.48-6.79-64.25-7.51-118.26-33.33.78-10.19 1.57-20.39 2.36-30.59zm391.71 409.33l55.21.45 4.38 59.7h-42.99c-23.41-17.48-16.81-19.54-36.97 0h-97.09l-2.58-19.31c40.01-13.61 80.03-27.23 120.04-40.84z"/><path class="fil9" d="M3184.92 1903.27l327.06-42.74 12.37-236.99 120.09-19.33-14.89 171.92-45.55 150.38-177.85 55.24-228.71-26.53-164.11-22.56 47.06-37.97z"/><path d="M2784.8 1993.08c114-121.43 410.57-12.94 799.2-66.57 9.7-49.23 63.61-176.12 84.05-324.61 19.19-139.43 3.28-299.79 60.94-376.98 69.53-93.07 279.31-42.66 282.57 67.21 7.56 254.68-380.76 1053.25-444.76 1234.07h-820.2c-21.03-277.47-22.69-468.25 38.2-533.12z" fill="#b59f7a"/></g></g></svg>