<svg xmlns="http://www.w3.org/2000/svg" width="177.279" height="111.68" viewBox="0 0 4690.52 2954.86" shape-rendering="geometricPrecision" text-rendering="geometricPrecision" image-rendering="optimizeQuality" fill-rule="evenodd" clip-rule="evenodd"><defs><style>.fil6{fill:#451e3b}.fil1{fill:#533a38}.fil0{fill:#b59f7a}.fil4{fill:#d8a588}.fil5{fill:#ebc9cd}.fil3{fill:#f96}.fil2{fill:#ffe3c3}</style></defs><g id="Слой_x0020_1"><g id="_3097986411168"><path class="fil0" transform="matrix(0 -.26495 .27625 0 947.587 1991.9)" d="M0 0h405.69v1618.45H0z"/><path class="fil1" transform="matrix(0 -.26495 .27625 0 947.587 2099.39)" d="M0 0h405.69v1618.45H0z"/><path class="fil2" d="M3304.1 1494.51l-97.23 213.81-215.4 41.56-105.6 8.33-101.19 61.75 92.41 14.47 79.5-29.06 280.29-11.48 154.97-97.48z"/><path class="fil3" d="M3226.45 2015.08c-28.89 107.21-57.77 214.41-86.65 321.62-89.24-23.39-178.48-46.78-267.71-70.17-95.55 200.01-191.09 400.02-286.63 600.04-11.91-3.89-34.46-14.57-46.37-18.45l164.54-607.77c-108.04 83.3-273.91 168.35-381.94 251.64-14.72-12.04-20.84-17.05-35.56-29.09 149.93-176.78 293.02-327.3 442.94-504.08 124.25-146.51 302.36-25 497.38 56.26z"/><path class="fil4" d="M3826.11 335.1h612.05v417.6h-612.05z"/><path class="fil0" d="M2685.54 1804.44l406.65 63.66-11.56 73.87-444-69.5-5.31.95-87.25-492.4 64.42-11.41zM3879.1 388.09h506.07v311.63H3879.1z"/><path class="fil4" d="M4299 894.7h391.53v273.2H4299z"/><path class="fil5" d="M4338.74 934.44h312.04v193.72h-312.04z"/><path class="fil3" d="M2424.34 1.02c289.99 0 525.13 234.78 525.75 524.62l159.5 158.88-172.16-42.6c-52.5 234.99-262.27 410.63-513.09 410.63-290.37 0-525.77-235.39-525.77-525.76S2133.97 1.02 2424.34 1.02zm230.58 499.91c0 27.18-4.35 52.14-13.06 74.68-8.61 22.54-20.89 40.24-36.76 53.11-15.96 12.86-34.34 19.25-55.33 19.25-13.93 0-26.31-3.39-37.15-10.07-10.73-6.67-18.47-15.57-23.21-26.5h-4.55c-20.41 24.38-46.34 36.57-77.87 36.57-33.47 0-59.88-10.07-79.13-30.19-19.25-20.12-28.92-47.59-28.92-82.51 0-39.85 12.67-71.97 38.01-96.25 25.35-24.38 58.33-36.57 99.16-36.57 16.25 0 34.14 1.55 53.78 4.65 19.54 3.09 35.6 6.86 48.27 11.22l-6.48 138.42c0 26.22 7.16 39.38 21.48 39.38 12.09 0 21.76-8.81 28.92-26.51 7.16-17.61 10.83-40.73 10.83-69.26 0-30.37-6.38-57.17-19.05-80.48-12.68-23.32-30.48-41.12-53.4-53.4-22.93-12.29-49.14-18.38-78.65-18.38-38.21 0-71.29 7.83-99.44 23.51-28.15 15.67-49.82 38.3-64.81 67.81-14.99 29.6-22.54 63.65-22.54 102.44 0 52.04 13.93 92.09 41.79 119.95s68.29 41.69 121.21 41.69c20.02 0 41.98-2.13 65.97-6.58a438.252 438.252 0 0070.91-19.44v54.36c-40.44 17.22-85.32 25.83-134.66 25.83-71.77 0-127.79-18.86-167.93-56.68-40.14-37.73-60.17-90.26-60.17-157.49 0-46.62 10.26-88.99 30.76-127.01 20.51-38.11 49.63-67.91 87.55-89.58 37.92-21.57 81.45-32.4 130.78-32.4 41.6 0 78.75 8.51 111.35 25.54 32.69 16.93 57.94 41.11 75.74 72.45 17.7 31.34 26.6 67.52 26.6 108.44zm-290.2 35.41c0 39.85 16.25 59.78 48.75 59.78 17.03 0 29.99-6 38.79-18 8.9-11.99 14.32-31.44 16.16-58.42l3.77-62.59c-9.67-2.03-20.51-3.1-32.6-3.1-23.7 0-42.08 7.35-55.14 22.06-13.16 14.7-19.73 34.82-19.73 60.27z"/><path class="fil5" d="M0 2908.27h4690.53v45.57H0z"/><path class="fil6" d="M3440.44 1145.53c71.27 7.62 144.55 9.94 213.64 29.63-3.21 142.93-6.43 285.86-9.64 428.79l-28.1 142.15-.88 192.41-44.04 119.98-346.2-8.27c19.93-113.37 34.59-196.82 54.52-310.18-10.23-219.13-62.27-483.15 160.7-594.51z"/><path class="fil2" d="M3420.81 761.82c48.56 9.96 97.12 19.93 145.68 29.89 15.12 36.32 30.25 72.64 45.37 108.96-27.44 93.66-51.7 159.46-28.63 260.14-35.52-3.81-52.52 1.63-86.92 13.45-23.59 8.11-91.1 34.27-89.86 17.95.96-12.65 21.37-32.14 35.28-57.26 14.12-25.53 21.76-56.73 23.67-70.05 2.85-19.86 13.57-49.5-7.3-58.96-59.62-27.02-31.43-71.83-29.96-194.83-2.44-16.43-4.89-32.86-7.33-49.29z"/><path class="fil3" d="M3400.06 732.48l197.46 36.28 12.73 132.48-55.94 9.85 19.73-42.12-27.25-54.74-134.32-3.53z"/><path class="fil1" d="M2774.63 2525.93h99.53l-43.44 382.09h-66.6zm676.89 0h101.25l54.33 382.09h-54.33z"/><path class="fil6" d="M2147.38 2438.79c27.49 6.74 54.97 13.47 82.46 20.2 15.78-.95 31.57-1.91 47.36-2.86 18.98 12.04 37.96 24.09 56.95 36.13-9.77 18.3-19.54 36.61-29.31 54.91-16.2-8.08-32.39-16.17-48.58-24.25 2.34-6.73 4.68-13.47 7.02-20.2-59.48-6.8-64.24-7.52-118.26-33.33.79-10.2 1.57-20.4 2.36-30.6zm391.71 409.33l55.21.45c1.46 19.9 2.93 39.8 4.39 59.7h-43c-23.4-17.48-16.81-19.54-36.97 0h-97.08c-.87-6.43-1.73-12.87-2.59-19.31 40.02-13.61 80.03-27.23 120.04-40.84z"/><path class="fil2" d="M3184.91 1903l327.06-42.74 12.37-236.98 120.1-19.33-14.9 171.92-45.55 150.38-177.84 55.23-228.71-26.52-95.59-20.84-55.14-59.16-90.87-31.34 117.53-28.64z"/><path class="fil4" d="M158.89 335.1h1388.04v2573.17H158.89V335.1zm66.24 66.24h1255.56v543.94H225.13V401.34zm1255.56 610.18v510.81H225.13v-510.81h1255.56zm0 577.05v510.82H225.13v-510.82h1255.56zm0 577.05v543.94H225.13v-543.94h1255.56zm1304.11-172.8c114-121.43 410.57-12.94 799.19-66.57 9.71-49.24 63.61-176.12 84.05-324.61 19.19-139.43 3.28-299.79 60.94-376.98 69.53-93.08 279.31-42.66 282.57 67.2 7.57 254.69-380.76 1053.25-444.76 1234.07H2746.6c-21.04-277.47-22.7-468.25 38.2-533.11z"/><path class="fil0" d="M366.76 2393c23.63 28.55 47.26 57.11 70.88 85.66 6.7-.37 13.4-.75 20.11-1.12-19.56-26.45-39.12-52.9-58.68-79.36 24.83-203.51-127.22-254.11-214.88-332.85-97.01-87.12-121.64-188.72-154.44-183.28-30.01 4.98-53 153.16 11.95 289.95 46.24 97.37 127.89 189.36 325.06 221z"/><path class="fil0" d="M438.14 1242.47c-44.65 5.7-61.28 112.95-97.79 228.1-35.86 113.11-91.97 233.14-98.66 350.1-11.68 203.79 180.22 300.97 262.68 337.86 1.73 75.36 2.65 93.19-.55 150.69-2.87 51.63-14.06 124.76-30.63 176.24l17.17-4.53c13.86-40.04 23.56-75.74 29.92-115.44 20.37-127.07.17-170.06.5-208.66 99.7-151.53 211.9-307.07 189.08-502.04-23.07-196.97-142.73-428.8-271.72-412.32z"/><path fill="#ebc9cd" fill-rule="nonzero" d="M613.04 2471.32H373.63l-61.8 436.95h362.23z"/><path class="fil4" d="M1263.5 498.17h107.49v447.1H1263.5z"/><path class="fil0" d="M1156.01 498.17h107.49v447.1h-107.49z"/><path class="fil1" d="M1048.52 498.17h107.49v447.1h-107.49z"/><path class="fil3" d="M1373.2 1075.23h107.49v447.1H1373.2z"/><path class="fil3" transform="matrix(.25334 .0776 -.0809 .26414 943.495 486.297)" d="M0 0h405.69v1618.45H0z"/><path class="fil0" transform="matrix(.25334 .0776 -.0809 .26414 1268.18 1063.35)" d="M0 0h405.69v1618.45H0z"/><path class="fil4" transform="matrix(.25334 .0776 -.0809 .26414 1377.92 2250.58)" d="M0 0h405.69v1618.45H0z"/></g></g></svg>