<?xml version="1.0" encoding="UTF-8"?>
<!DOCTYPE svg PUBLIC "-//W3C//DTD SVG 1.1//EN" "http://www.w3.org/Graphics/SVG/1.1/DTD/svg11.dtd">
<!-- Creator: CorelDRAW 2018 (64-Bit) -->
<svg xmlns="http://www.w3.org/2000/svg" xml:space="preserve" width="63.5846mm" height="42.8412mm" version="1.1" style="shape-rendering:geometricPrecision; text-rendering:geometricPrecision; image-rendering:optimizeQuality; fill-rule:evenodd; clip-rule:evenodd"
viewBox="0 0 6358.46 4284.12"
 xmlns:xlink="http://www.w3.org/1999/xlink">
 <defs>
  <style type="text/css">
   <![CDATA[
    .fil8 {fill:#FEFEFE}
    .fil1 {fill:#451E3B}
    .fil7 {fill:#533A38}
    .fil10 {fill:#D8A588}
    .fil2 {fill:#DCA98C}
    .fil9 {fill:#E18D4E}
    .fil3 {fill:#EBC9CD}
    .fil0 {fill:#FF9966}
    .fil6 {fill:#FFE3C3}
    .fil5 {fill:#451E3B;fill-rule:nonzero}
    .fil4 {fill:#DCA98C;fill-rule:nonzero}
   ]]>
  </style>
 </defs>
 <g id="Слой_x0020_1">
  <metadata id="CorelCorpID_0Corel-Layer"/>
  <g id="_3097912483968">
   <path class="fil0" d="M2289.14 2436.43c-105.71,134.33 -211.42,268.66 -317.13,402.98 -73.39,2.92 -146.78,5.84 -220.16,8.76 -347.22,188.62 -694.44,377.25 -1041.66,565.87 -23.92,-19.95 -47.84,-39.89 -71.76,-59.84 744.28,-637.31 686.85,-778.25 1650.71,-917.77z"/>
   <path class="fil1" d="M473.52 3278.12c37.05,17.69 74.1,35.38 111.15,53.07 22.7,3.32 45.41,6.63 68.11,9.94 23.41,22.72 46.81,45.44 70.22,68.16 -19.29,23.11 -38.59,46.22 -57.88,69.33 -20.61,-16.27 -41.21,-32.54 -61.82,-48.81 5.31,-8.88 10.63,-17.75 15.94,-26.63 -82.47,-27.23 -89.03,-29.67 -158.12,-82.31 4.14,-14.25 8.27,-28.5 12.4,-42.75z"/>
   <rect class="fil2" x="5341.21" y="4151.82" width="600.08" height="66.2"/>
   <rect class="fil3" x="5612.02" y="846.75" width="61.03" height="3305.07"/>
   <polygon class="fil1" points="4293.05,2391.03 4601.99,2505.45 4507.91,2726.66 4212.96,2605.89 "/>
   <path class="fil0" d="M5199.67 1614.29c220.13,-18.64 406.65,27.32 413.91,359.48 5.58,255.57 23.5,504.61 22.12,763.88 -52.24,35.81 -104.48,71.61 -156.72,107.41 -94.8,7.32 -189.6,14.65 -284.4,21.97 -138.62,-8.79 -277.25,-17.59 -415.88,-26.39 -0.27,-44.34 -0.53,-88.69 -0.8,-133.03 -52.54,4.58 -105.08,9.17 -157.63,13.75 -7.33,-24.08 -14.66,-48.16 -21.99,-72.24 59.67,-14.41 119.34,-28.82 179.01,-43.23 -0.31,-51.62 -0.62,-103.24 -0.93,-154.85 -104.77,14.23 -209.55,28.47 -314.32,42.71 -4.06,-28.74 -8.12,-57.49 -12.18,-86.22 112.58,-39.41 225.16,-78.81 337.74,-118.21 0,-104.33 0,-208.65 0,-312.97 0,-344.4 96.92,-335.37 412.07,-362.06z"/>
   <path class="fil0" d="M2367.46 -0.01c420.73,0 761.89,340.63 762.79,761.15l231.41 230.51 -249.78 -61.81c-76.17,340.94 -380.51,595.78 -744.42,595.78 -421.29,0 -762.81,-341.53 -762.81,-762.82 0,-421.28 341.52,-762.81 762.81,-762.81zm363.63 701.79c33.71,0 61.03,27.32 61.03,61.03 0,33.7 -27.32,61.02 -61.03,61.02 -33.7,0 -61.02,-27.32 -61.02,-61.02 0,-33.71 27.32,-61.03 61.02,-61.03zm-355.98 0c33.7,0 61.02,27.32 61.02,61.03 0,33.7 -27.32,61.02 -61.02,61.02 -33.71,0 -61.03,-27.32 -61.03,-61.02 0,-33.71 27.32,-61.03 61.03,-61.03zm-355.98 0c33.7,0 61.02,27.32 61.02,61.03 0,33.7 -27.32,61.02 -61.02,61.02 -33.71,0 -61.03,-27.32 -61.03,-61.02 0,-33.71 27.32,-61.03 61.03,-61.03z"/>
   <path class="fil4" d="M5444.2 170.39l396.67 0 198.33 676.36 -793.33 0 198.33 -676.36zm198.34 0m297.49 338.18m-297.49 338.18m-297.51 -338.18"/>
   <polygon class="fil5" points="5295.08,678.93 5989.37,678.93 6039.2,846.75 5245.87,846.75 "/>
   <path class="fil1" d="M3873.43 1359.12c79.68,66.83 166.06,128.89 233.35,208.49 -119.48,169.56 -238.95,339.11 -358.43,508.67 -53.43,-24.62 -106.86,-49.24 -160.28,-73.85 -26.44,59.04 -52.88,118.09 -79.31,177.13 -208.77,31.72 -417.54,63.45 -626.31,95.17 115.7,-120.43 231.4,-240.87 347.09,-361.3 164.91,-272.21 285.25,-600.52 643.89,-554.31z"/>
   <polygon class="fil6" points="2882.45,2274.73 3508.76,2179.56 3588.07,2002.43 3748.35,2076.28 3555.03,2332.99 2662.46,2366.46 2711.53,2310.84 "/>
   <polygon class="fil1" points="2947.98,2462.05 3484.49,2446.79 3295.51,2710.64 "/>
   <path class="fil3" d="M3555.03 2332.99l551.75 -765.38 71.89 -28.6 45.24 16.59 6.73 70.19 -911.42 1281.22 154.19 670.24 141.9 0 0 55.94 -3620.84 0 0 -55.94 3390.53 0 -135.45 -609.37 -1457.32 5.13 -1244.98 604.24 -137.49 0 1342.09 -729.08 220.16 -8.76 362.51 -460.65 1220.51 -45.77zm-1452.71 503.55l0.58 -0.01 1100.76 2.34 280.83 -392.08 -1096.28 28.88 -285.89 360.87z"/>
   <polygon class="fil0" points="2388.21,2475.67 2947.98,2462.05 3295.51,2710.64 3203.66,2838.87 2102.9,2836.53 "/>
   <path class="fil6" d="M4160.14 881.08c50.43,51.27 100.86,102.55 151.29,153.83 -11.16,55.97 -22.32,111.95 -33.48,167.93 -108.81,90.62 -191.25,150.25 -244.89,290.17 -39.71,-33.3 -64.59,-40.5 -115.58,-54.09 -34.97,-9.32 -137.45,-32.41 -122.75,-51.06 11.39,-14.46 51.73,-21.42 88.81,-40.44 37.66,-19.33 72.09,-50.73 85.17,-65.22 19.5,-21.62 56.38,-48.66 38.89,-76.92 -49.96,-80.78 20.24,-111.95 121.5,-258.91 10.35,-21.76 20.69,-43.53 31.04,-65.29z"/>
   <polygon class="fil0" points="4158.87,828.95 4367.37,1032.37 4275.55,1202.23 4200.21,1168.85 4258.04,1134.08 4269.48,1046.1 4110.56,933.2 "/>
   <rect class="fil3" x="2280.38" y="4218.01" width="4083.6" height="66.11"/>
   <polygon class="fil7" points="4380.06,3663.66 4524.47,3663.66 4461.43,4218.01 4364.81,4218.01 "/>
   <polygon class="fil7" points="5362.13,3663.66 5509.03,3663.66 5587.85,4218.01 5509.03,4218.01 "/>
   <path class="fil3" d="M4181.82 1327.95c0.9,-15.77 1.81,-31.54 2.72,-47.31 31.13,-25.93 62.27,-51.87 93.41,-77.8 27.08,-30.37 54.15,-60.75 81.22,-91.11 29.7,-33.34 83.2,33.35 82.2,48.49 -1.62,24.61 -40.51,53.27 -93.71,123.43 -37.52,46.4 -75.07,131.83 -128.24,101.44 -34.44,-19.68 -39.89,-17.19 -37.6,-57.14z"/>
   <polygon class="fil2" points="4203.41,1375.95 4235.01,1390.9 4223.91,1555.6 4178.67,1539.01 "/>
   <polygon class="fil8" points="5022.14,1611.62 5203.57,1574.69 5237.65,2468.56 5012.61,2535.95 "/>
   <polygon class="fil9" points="4228.81,2563.35 4524.38,2687.95 4507.91,2726.66 4212.96,2605.89 "/>
   <path class="fil6" d="M4402.39 2675.81c98.45,9.8 105.69,16.99 200.59,-11.24 5.76,18.93 11.53,37.86 17.29,56.79 -43.19,16.36 -78.14,40.67 -120.99,27.99 -29.72,-8.79 -61.47,-19.8 -91.19,-38.76 -2.57,-15.72 -3.12,-19.06 -5.7,-34.78z"/>
   <path class="fil6" d="M4452.14 2423.67c3.3,23.36 6.6,46.72 9.9,70.08 -12.67,9.18 -25.34,18.37 -38,27.56 -26.15,18.96 -29.42,6.55 -60.6,-9.03 -33.71,33.42 -36.6,49.77 -82.93,55.47 32.42,-125.11 44.33,-96.33 171.63,-144.08z"/>
   <path class="fil0" d="M2954.34 4085.74c40.68,5.51 81.37,11.02 122.05,16.53 22.63,-3.79 45.26,-7.59 67.89,-11.38 29.24,14.47 58.47,28.94 87.7,43.41 -11.3,27.9 -22.59,55.81 -33.89,83.71 -24.6,-9.18 -49.19,-18.37 -73.79,-27.55 2.34,-10.08 4.69,-20.15 7.03,-30.23 -86.85,-0.7 -93.84,-1.01 -175.72,-29.99 -0.42,-14.83 -0.85,-29.66 -1.27,-44.5z"/>
   <path class="fil0" d="M3499.74 4130.74c26.7,0.21 53.4,0.43 80.1,0.65 2.12,28.87 4.24,57.75 6.36,86.62 -20.79,0 -41.58,0 -62.37,0 -33.96,-25.36 -24.39,-28.35 -53.64,0 -46.96,0 -93.91,0 -140.86,0 -1.25,-9.34 -2.5,-18.68 -3.75,-28.02 58.05,-19.75 116.11,-39.5 174.16,-59.25z"/>
   <path class="fil1" d="M4350.96 2971.89c-9.45,136.96 -18.89,273.91 -28.34,410.87 -88.36,8.93 -120.57,58.04 -180.96,123.7 -208.94,227.13 -365.84,397.69 -574.77,624.82 -22.38,-0.18 -44.77,-0.36 -67.15,-0.54 139.88,-231.13 279.75,-462.26 419.62,-693.38 -236.39,227.64 -475.47,457.17 -711.86,684.82 -21.97,-9.8 -41.25,-21.49 -63.22,-31.29 267.29,-331.68 534.59,-663.36 801.88,-995.05 105.41,-130.82 231.49,-102.42 404.8,-123.95z"/>
   <path class="fil1" d="M4821.98 1167.97c182.83,-50.31 289.75,-98.13 348.35,-44.09 34.94,32.23 12.81,120.41 67.24,222.08 -22.45,1.06 -44.89,2.12 -67.33,3.19 4.17,-18.63 8.34,-37.24 12.51,-55.86 -12.87,-0.17 -25.75,-0.34 -38.63,-0.51 -5.27,-16.6 -10.54,-33.21 -15.81,-49.81 -71.79,14.9 -143.57,29.8 -215.36,44.71 1.96,12.78 3.91,25.57 5.87,38.35 -64.97,-7.11 -31.32,-71.33 -96.84,-158.06z"/>
   <polygon class="fil8" points="5013.96,2675.8 5238.99,2640.2 5238.99,2834.72 5013.96,2834.72 "/>
   <path class="fil6" d="M4903.27 1228.98c78.83,40.26 153.84,-13.56 240.29,-15.25 0.19,26.35 0.38,52.7 0.56,79.05 5.21,0.07 20.6,-6.21 25.81,-6.15 30.88,0.4 2.92,50.84 -4.86,85.56 -0.68,86.83 13.19,163.49 40.2,247.13 3.96,103.9 -166.33,221.9 -183.45,23.38 -2.67,-31.73 -8.42,-80.46 -7.75,-121.1 0.68,-40.86 -49.32,-20.74 -68.17,-53.3 -19.94,-34.46 -28.95,-149.9 -42.63,-239.32z"/>
   <path class="fil10" d="M4394.81 2890.18c165.4,-176.18 595.68,-18.78 1159.52,-96.58 14.08,-71.43 92.29,-255.53 121.94,-470.96 27.84,-202.3 4.76,-434.96 88.42,-546.95 100.88,-135.04 405.24,-61.9 409.97,97.5 10.97,369.51 -552.43,1528.12 -645.28,1790.47 -396.67,0 -793.33,0 -1190,0 -30.51,-402.58 -32.92,-679.37 55.43,-773.48z"/>
   <rect class="fil9" transform="matrix(0.359606 0.135848 -0.135848 0.359606 4387.71 2361.7)" width="79.37" height="601.93"/>
  </g>
 </g>
</svg>
